<svg width="696" height="437" viewBox="0 0 696 437" fill="none" xmlns="http://www.w3.org/2000/svg">
<rect x="287" y="99" width="148" height="158" fill="white"/>
<path d="M220.701 192.94C220.277 191.706 219.853 190.472 219.523 188.405C218.638 162.825 223.116 139.338 235.448 117.575C246.775 97.585 262.322 81.8783 282.381 70.672C299.774 60.9559 318.423 55.5667 338.335 54.5967C339.244 54.6849 340.152 54.7732 341.627 55.2083C349.688 59.6909 357.182 63.8265 364.56 68.2682C360.027 73.7357 355.081 78.5395 351.31 84.1355C344.176 94.7231 339.775 106.477 338.829 119.673C337.294 121.446 335.917 122.934 334.489 124.478C336.128 125.879 337.445 127.004 338.76 128.484C338.436 129.902 338.113 130.964 337.449 131.943C336.582 131.462 336.078 131.034 335.531 130.67C327.856 125.553 319.126 123.16 310.565 126.07C304.739 128.049 305.587 135.496 304.294 140.825C304.029 141.917 304.237 143.136 304.295 144.293C304.953 157.443 314.373 163.3 324.412 168.963C328.752 160.821 334.462 154.983 343.717 154.069C344.212 155.359 344.675 156.249 344.841 157.372C334.962 159.623 328.131 166.686 327.094 175.975C326.299 183.093 329.629 188.695 334.088 194.066C333.223 195.616 332.492 196.824 331.765 197.678C325.033 190.094 321.22 181.857 323.355 171.799C303.925 167.821 290.041 175.757 285.381 193.409C284.91 195.192 285.08 198.172 286.214 199.186C294.029 206.174 303.115 211.227 313.761 207.912C320.193 205.909 325.827 201.347 331.838 198.347C331.508 201.175 331.159 203.589 330.796 205.983C330.781 205.962 330.828 205.983 330.55 205.981C330.128 206.306 329.983 206.633 329.744 207.379C329.69 208.367 329.73 208.935 329.781 209.508C329.791 209.513 329.795 209.484 329.482 209.76C328.425 215.593 327.683 221.15 326.845 226.337C326.155 219.917 325.559 213.868 324.995 208.148C322.607 209.152 319.267 210.977 315.695 211.94C312.099 212.91 308.272 213.021 303.925 213.59C304.857 217.454 305.853 221.242 306.675 225.068C307.625 229.494 310.682 230.973 314.715 230.752C318.678 230.535 322.619 229.928 326.862 229.796C327.816 234.011 328.477 237.922 328.739 241.998C318.434 244.037 308.616 245.224 298.37 244.182C276.448 241.953 257.139 233.957 241.425 218.75C233.558 211.137 227.549 201.604 220.701 192.94ZM292.871 151.391C283.263 157.778 282.801 165.65 290.758 173.161C297.874 170.526 304.53 168.061 310.341 165.909C306.905 160.802 303.095 155.137 298.875 148.864C297.753 149.323 295.647 150.185 292.871 151.391Z" fill="#592BCD"/>
<path d="M326.939 226.706C327.682 221.149 328.425 215.592 329.601 210.205C328.42 224.456 334.004 235.353 346.017 240.739C347.735 241.509 350.573 241.282 352.261 240.36C359.75 236.273 365.373 230.39 368.261 221.965C369.702 221.963 370.75 221.961 371.81 222.334C371.23 224.706 370.638 226.701 370.046 228.697C387.41 233.162 391.943 232.183 392.83 213.799C388.627 212.926 384.492 212.067 380.723 211.021C381.739 209.983 382.39 209.132 383.474 208.369C392.327 210.162 399.657 207.141 407.107 203.427C414.831 203.423 422.362 203.997 429.576 202.745C440.941 200.773 451.942 197.235 460.905 189C461.117 189.002 461.543 189.017 461.567 189.386C462.727 192.195 463.862 194.633 464.998 197.071C465.167 197.786 465.336 198.501 465.259 199.848C464.633 201.401 464.092 202.288 463.893 203.246C456.877 237.023 438.567 263.224 409.909 281.975C402.116 287.074 392.934 290.05 384.013 294.015C367.342 290.314 353.204 282.577 343.475 268.949C337.587 260.702 333.844 250.923 329.138 241.832C328.477 237.921 327.816 234.01 327.004 229.585C326.881 228.283 326.91 227.494 326.939 226.706Z" fill="#D6587F"/>
<path d="M328.739 241.999C333.845 250.925 337.587 260.704 343.475 268.951C353.204 282.579 367.343 290.316 384.088 294.17C384.54 294.308 384.729 294.587 384.729 294.587C332.415 310.925 287.142 299.533 249.924 259.224C233.02 240.916 223.572 218.663 220.647 193.375C227.549 201.606 233.558 211.138 241.425 218.751C257.139 233.958 276.448 241.954 298.37 244.183C308.617 245.225 318.434 244.038 328.739 241.999Z" fill="#3571F5"/>
<path d="M378.754 59.0587C391.68 51.1026 405.967 48.1427 420.809 49.3018C447.669 51.3996 468.36 64.2607 482.576 87.222C501.489 117.769 494.697 161.431 467.214 183.742C466.867 166.69 464.718 150.339 458.565 134.758C445.721 102.237 423.608 78.5026 391.26 64.6389C387.065 62.8409 382.922 60.9218 378.754 59.0587Z" fill="#FCB75F"/>
<path d="M378.419 59.0752C382.922 60.9223 387.065 62.8415 391.261 64.6395C423.609 78.5032 445.721 102.238 458.565 134.759C464.718 150.339 466.867 166.69 466.893 183.869C466.831 184.695 466.707 185.021 466.18 185.71C464.365 187.054 462.954 188.036 461.543 189.018C461.543 189.018 461.118 189.003 460.785 188.686C459.245 186.595 458.085 184.787 456.825 183.051C445.012 166.79 429.457 156.663 408.996 154.079C407.383 153.201 406.064 152.361 404.778 151.02C405.732 128.337 399.921 107.984 386.679 90.2639C380.59 82.1161 372.667 75.3389 365.792 67.6758C369.597 64.744 373.185 62.0765 376.773 59.4091C377.21 59.3031 377.646 59.1971 378.419 59.0752Z" fill="#D39A5D"/>
<path d="M199.776 408.964C199.776 394.314 199.776 380.165 199.776 365.442C201.622 365.323 203.21 365.135 204.798 365.134C225.623 365.116 246.454 364.832 267.27 365.283C274.644 365.443 282.212 366.63 289.278 368.736C299.204 371.694 304.637 379.913 304.739 390.262C304.88 404.563 304.774 418.867 304.774 433.513C298.529 433.513 292.607 433.513 286.034 433.513C285.963 432.092 285.818 430.513 285.815 428.933C285.795 417.938 285.4 406.923 285.903 395.951C286.585 381.072 280.522 373.798 261.786 375.522C261.786 385.031 261.786 394.625 261.786 404.218C261.786 413.861 261.786 423.504 261.786 433.502C255.417 433.502 249.375 433.502 242.785 433.502C242.785 414.111 242.785 394.88 242.785 375.372C234.664 375.372 227.084 375.372 218.961 375.372C218.961 394.714 218.961 413.945 218.961 433.515C212.514 433.515 206.591 433.515 199.776 433.515C199.776 425.608 199.776 417.536 199.776 408.964Z" fill="#FBA639"/>
<path d="M28.8171 406.708C25.5126 406.708 22.7009 406.708 19.2299 406.708C19.2299 415.8 19.2299 424.525 19.2299 433.545C12.4969 433.545 6.42224 433.545 0 433.545C0 403.183 0 372.942 0 342.41C0.616455 342.253 1.37567 341.891 2.13483 341.891C18.9618 341.898 35.8005 341.58 52.6113 342.122C62.6752 342.446 72.3942 344.941 80.0175 352.37C95.688 367.64 90.653 394.524 70.1159 402.1C62.3375 404.969 53.6428 405.573 45.2902 406.587C40.036 407.225 34.6415 406.707 28.8171 406.708ZM66.5087 364.124C63.5431 356.892 57.999 353.148 50.3431 352.821C41.2038 352.43 32.0457 352.499 22.9017 352.19C19.6652 352.08 19.0063 353.572 19.03 356.413C19.128 368.236 19.1373 380.062 19.0253 391.885C18.9972 394.849 19.8961 396.025 23.0158 395.959C31.6724 395.777 40.339 396.036 48.9938 395.815C59.2706 395.552 66.7169 389.102 67.6071 379.232C68.0323 374.517 67.0765 369.678 66.5087 364.124Z" fill="#FBA639"/>
<path d="M338.035 54.3573C318.423 55.5666 299.773 60.9558 282.381 70.6719C262.322 81.8782 246.775 97.5849 235.448 117.575C223.115 139.338 218.638 162.825 219.492 188.08C213.32 178.303 210.804 166.903 209.953 155.265C206.17 103.501 239.881 60.0197 290.91 50.5733C306.788 47.634 322.425 48.9964 338.035 54.3573Z" fill="#8349D0"/>
<path d="M529.78 407.055C519.974 407.055 510.667 407.055 501.363 407.055C501.446 417.455 508.305 424.707 518.869 426.164C528.76 427.528 537.049 423.613 545.478 417.961C547.425 420.794 549.234 423.425 551.176 426.251C545.524 431.599 538.972 433.853 532.097 435.229C519.862 437.678 507.835 436.919 496.748 430.853C482.782 423.212 476.557 405.891 481.027 388.715C484.392 375.783 492.595 367.404 505.472 364.375C521.385 360.632 536.35 362.366 548.145 375.196C556.383 384.156 556.595 395.242 556.046 407.055C547.181 407.055 538.731 407.055 529.78 407.055ZM527 375.047C520.78 370.96 514.262 370.6 508.494 375.255C501.814 380.646 500.359 388.366 500.679 396.796C512.584 396.796 523.944 396.796 535.711 396.796C535.516 388.474 533.797 381.159 527 375.047Z" fill="#FBA73A"/>
<path d="M687.006 370.692C691.771 375.008 694.955 380.052 695.081 386.066C695.412 401.808 695.193 417.561 695.193 433.861C682.407 433.861 669.634 434.076 656.873 433.764C651.107 433.623 645.256 432.91 639.638 431.615C629.503 429.278 623.93 422.201 623.775 412.568C623.606 402.062 628.264 395.45 638.945 392.67C644.99 391.097 651.353 390.506 657.615 390.069C663.713 389.643 669.865 389.977 675.977 389.977C676.204 376.983 666.787 370.171 653.069 373.31C647.953 374.481 643.059 376.62 637.335 378.565C636.085 376.559 634.472 373.969 632.891 371.43C642.328 362.265 672.093 358.138 687.006 370.692ZM650.301 401.656C645.028 405.029 643.395 408.614 644.294 414.129C645.204 419.719 648.775 422.983 653.957 423.396C661.334 423.985 668.793 423.546 676.239 423.546C676.239 415.551 676.239 407.857 676.239 399.268C667.495 399.971 659.251 400.635 650.301 401.656Z" fill="#FBA73A"/>
<path d="M362.78 433.865C352.862 433.203 343.292 433.367 334.062 431.679C321.008 429.291 315.231 419.534 317.798 406.577C319.463 398.173 327.614 392.153 339.25 390.955C344.203 390.445 349.187 390.15 354.164 389.988C359.131 389.826 364.108 389.952 369 389.952C370.88 381.06 364.344 373.467 354.789 372.828C346.344 372.264 338.764 374.883 331.164 379.261C329.487 376.409 327.937 373.774 326.422 371.201C341.581 359.286 370.262 360.19 382.286 372.615C386.389 376.854 388.739 381.884 388.784 387.807C388.893 402.287 388.898 416.768 388.927 431.248C388.928 431.894 388.754 432.539 388.564 433.865C380.138 433.865 371.709 433.865 362.78 433.865ZM367.976 423.884C368.571 423.427 369.677 422.978 369.684 422.513C369.793 415.104 369.761 407.692 369.761 400.294C362.213 400.294 355.2 399.694 348.337 400.451C340.351 401.331 337.234 405.774 337.762 413.358C338.2 419.64 342.67 423.572 350.065 423.83C355.714 424.027 361.374 423.898 367.976 423.884Z" fill="#FBA73A"/>
<path d="M399.387 379.404C397.597 374.76 395.978 370.463 393.991 365.19C400.511 365.19 406.102 364.966 411.646 365.376C412.778 365.459 414.118 367.771 414.711 369.307C420.82 385.126 426.791 400.997 432.811 416.849C433.387 418.366 434.033 419.857 435.089 422.442C439.91 409.758 444.348 398.075 448.79 386.395C451.035 380.49 453.402 374.628 455.482 368.665C456.383 366.082 457.662 364.93 460.517 365.056C465.45 365.274 470.401 365.117 476.149 365.117C473.552 371.868 471.242 377.861 468.94 383.857C463.042 399.224 457.054 414.557 451.333 429.99C450.207 433.028 448.712 434.035 445.553 433.936C438.394 433.712 431.22 433.731 424.061 433.933C421.303 434.011 419.911 433.17 418.928 430.553C412.555 413.588 406.032 396.679 399.387 379.404Z" fill="#FBA73A"/>
<path d="M385.174 294.651C384.728 294.587 384.539 294.308 384.465 294.155C392.934 290.052 402.116 287.076 409.909 281.977C438.567 263.226 456.877 237.025 463.893 203.248C464.092 202.29 464.633 201.403 465.256 200.219C473.426 221.145 471.67 241.813 459.911 260.825C444.14 286.324 420.678 297.779 390.6 295.12C388.941 294.973 387.28 294.849 385.174 294.651Z" fill="#FF7783"/>
<path d="M99.5057 413.964C99.5238 406.299 99.3633 399.128 99.5976 391.97C100.087 377.027 109.597 367.046 124.537 365.903C131.665 365.358 138.833 365.267 145.986 365.142C152.806 365.023 152.815 365.121 152.5 372.102C152.464 372.902 152.281 373.694 152.131 374.739C145.661 375.049 139.362 375.037 133.139 375.721C123.776 376.749 118.94 382.142 118.752 391.688C118.517 403.682 118.633 415.682 118.599 427.68C118.593 429.487 118.598 431.294 118.598 433.482C112.179 433.482 106.143 433.482 99.5059 433.482C99.5059 427.031 99.5059 420.747 99.5057 413.964Z" fill="#FBA73A"/>
<path d="M581.34 370.367C588.681 368.48 595.647 366.23 602.784 365.306C609.129 364.485 615.664 365.134 622.407 365.134C622.407 368.6 622.407 371.495 622.407 374.745C615.959 375.043 609.663 374.998 603.452 375.699C593.921 376.774 588.936 382.423 588.823 392.077C588.663 405.725 588.783 419.376 588.783 433.443C582.483 433.443 576.443 433.443 569.732 433.443C569.732 427.348 569.727 421.25 569.733 415.153C569.739 407.492 569.714 399.831 569.776 392.17C569.85 383.073 573.356 375.728 581.34 370.367Z" fill="#FBA639"/>
<path d="M552.364 177.399C544.641 186.882 534.681 189.436 525.201 184.619C516.619 180.259 511.962 170.289 514.36 161.113C516.583 152.604 522.087 147.143 530.65 145.401C539.244 143.653 546.554 146.567 551.69 153.654C557.096 161.113 557.143 169.096 552.364 177.399Z" fill="#4F83F5"/>
<path d="M181.768 397.964C181.768 410.062 181.768 421.66 181.768 433.556C175.383 433.556 169.475 433.556 163.167 433.556C163.167 411.567 163.167 389.562 163.167 367.152C169.09 367.152 175.112 367.152 181.768 367.152C181.768 377.293 181.768 387.378 181.768 397.964Z" fill="#FBA639"/>
<path d="M380.533 31.7993C371.278 38.5077 360.817 37.2028 354.21 28.7965C348.696 21.7817 349.919 10.5775 356.868 4.43651C364.101 -1.9543 375.446 -1.37021 382.063 5.73356C388.98 13.1593 388.47 23.6199 380.533 31.7993Z" fill="#FF8893"/>
<path d="M214.946 274.109C220.883 269.533 226.494 269.699 230.809 274.297C234.713 278.457 234.839 284.027 231.128 288.314C227.247 292.797 220.874 293.58 216.338 290.131C210.993 286.068 210.4 280.45 214.946 274.109Z" fill="#FCC275"/>
<path d="M181.762 346.119C182.921 351.344 181.877 355.524 177.387 358.08C173.276 360.419 168.963 360.239 165.414 356.937C161.936 353.699 160.563 349.172 163.139 345.213C164.894 342.517 168.456 339.995 171.579 339.428C176.03 338.62 179.906 341.086 181.762 346.119Z" fill="#FBA73A"/>
<path d="M487.037 198.385C489.441 193.452 493.597 191.602 497.941 193.107C500.93 194.143 503.957 197.131 505.399 200.027C507.086 203.414 505.563 207.175 502.488 209.839C499.281 212.618 493.762 213.144 490.435 210.588C486.523 207.582 484.94 203.62 487.037 198.385Z" fill="#FF8893"/>
<path d="M177.694 178.052C179.211 171.637 181.977 169.334 187.237 169.785C191.689 170.167 194.13 172.821 194.788 177.048C195.542 181.887 192.396 186.064 187.743 186.846C183.564 187.548 177.736 184.852 177.694 178.052Z" fill="#9564D7"/>
<path d="M376.38 59.2919C373.185 62.0764 369.597 64.7438 365.567 67.6608C365.125 67.9103 364.676 67.9622 364.676 67.9622C357.182 63.8266 349.687 59.6909 341.959 55.2939C353.146 56.4134 364.566 57.7942 376.38 59.2919Z" fill="#3571F5"/>
<path d="M461.567 189.387C462.954 188.035 464.365 187.053 466.06 185.945C466.02 189.296 465.695 192.773 465.184 196.661C463.863 194.633 462.727 192.195 461.567 189.387Z" fill="#4F83F5"/>
<path d="M364.56 68.2681C364.676 67.9621 365.126 67.9102 365.351 67.9251C372.667 75.3387 380.59 82.1159 386.679 90.2637C399.921 107.984 405.732 128.336 404.423 150.866C402.02 150.321 400.005 149.428 397.696 148.404C396.932 150.199 396.324 151.63 395.301 153.044C393.777 153.042 392.669 153.057 391.57 152.658C394.819 143.934 393.15 135.941 389.754 128.178C389.208 126.928 387.485 125.693 386.099 125.387C368.621 121.519 351.623 134.745 351.066 151.081C356.798 154.502 361.918 157.557 366.659 160.732C365.332 161.324 364.384 161.798 363.115 162.143C357.508 158.221 351.661 156.455 345.138 157.138C344.675 156.249 344.212 155.359 344.021 153.854C347.05 153.267 347.388 151.544 346.485 149.629C343.695 143.711 340.704 137.887 337.792 132.026C338.114 130.964 338.436 129.902 339.085 128.561C342.71 132.488 346.007 136.694 348.675 140.097C352.962 134.912 357.499 129.425 362.171 123.774C354.762 113.703 349.947 112.669 338.987 119.387C339.775 106.477 344.176 94.7231 351.31 84.1355C355.081 78.5395 360.027 73.7356 364.56 68.2681Z" fill="#7A35AE"/>
<path d="M368.261 221.967C368.631 213.982 367.302 206.493 362.599 199.31C353.99 203.69 345.378 204.009 336.657 199.959C335.985 199.646 334.283 200.552 333.663 201.357C332.676 202.635 332.198 204.305 331.158 205.907C331.159 203.59 331.508 201.176 331.838 198.348C331.82 197.935 331.812 197.998 331.786 198.016C332.492 196.825 333.223 195.617 334.087 194.067C340.967 197.99 348.128 199.67 355.985 197.333C368.482 193.618 376.841 176.4 363.59 162.574C364.383 161.799 365.332 161.325 366.969 160.885C369.617 163.33 371.575 165.741 373.672 168.323C381.389 165.173 387.097 159.866 391.561 153.072C392.669 153.058 393.777 153.043 395.257 153.381C392.622 158.054 389.615 162.374 387.168 165.89C391.957 167.698 396.939 169.578 401.781 171.856C401.294 173.314 400.947 174.375 400.272 175.253C392.124 170.106 383.559 170.765 374.493 171.355C375.754 181.67 373.298 190.445 364.785 198.013C371.317 201.688 377.179 204.985 383.041 208.282C382.39 209.133 381.739 209.985 380.362 211.056C376.983 210.184 374.33 209.091 371.798 208.048C371.798 212.884 371.798 217.422 371.798 221.96C370.75 221.963 369.702 221.965 368.261 221.967Z" fill="#E2537A"/>
<path d="M330.977 206.953C330.781 207.661 330.585 208.369 330.079 209.291C329.73 208.936 329.689 208.368 330.028 207.381C330.597 206.959 330.787 206.956 330.977 206.953Z" fill="#E2537A"/>
<path d="M331.018 206.697C330.787 206.954 330.597 206.957 330.122 206.959C329.983 206.632 330.127 206.305 330.55 205.98C330.904 206.136 330.981 206.289 331.018 206.697Z" fill="#D6587F"/>
<path d="M400.6 175.435C400.947 174.374 401.294 173.313 402.086 172.057C403.872 172.652 405.213 173.441 406.861 174.411C408.512 171.051 409.919 168.262 411.26 165.442C413.27 161.217 413.738 157.232 409.29 154.117C429.456 156.662 445.012 166.79 456.825 183.051C458.085 184.787 459.245 186.595 460.572 188.684C451.942 197.236 440.941 200.774 429.576 202.746C422.362 203.998 414.831 203.424 407.386 203.212C409.704 200.351 414.013 199.319 412.504 194.312C410.264 186.877 406.949 180.228 400.6 175.435Z" fill="#F66261"/>
</svg>
